<?xml version="1.0" encoding="UTF-8" standalone="no"?>
<svg
   xmlns:dc="http://purl.org/dc/elements/1.1/"
   xmlns:cc="http://creativecommons.org/ns#"
   xmlns:rdf="http://www.w3.org/1999/02/22-rdf-syntax-ns#"
   xmlns:svg="http://www.w3.org/2000/svg"
   xmlns="http://www.w3.org/2000/svg"
   viewBox="0 0 522.36743 153.21542"
   height="153.21542"
   width="522.36743"
   xml:space="preserve"
   id="svg3718"
   version="1.1"><metadata
     id="metadata3724"><rdf:RDF><cc:Work
         rdf:about=""><dc:format>image/svg+xml</dc:format><dc:type
           rdf:resource="http://purl.org/dc/dcmitype/StillImage" /><dc:title></dc:title></cc:Work></rdf:RDF></metadata><defs
     id="defs3722"><clipPath
       id="clipPath3734"
       clipPathUnits="userSpaceOnUse"><path
         id="path3732"
         d="M 0,160 H 400 V 0 H 0 Z" /></clipPath></defs><g
     transform="matrix(1.3333333,0,0,-1.3333333,-6.7913207,213.33333)"
     id="g3726"><g
       id="g3728"><g
         clip-path="url(#clipPath3734)"
         id="g3730"><g
           transform="matrix(1.1881213,0,0,1.1881213,139.50446,101.73032)"
           id="g3736"><path
             id="path3738"
             style="fill:#3998d4;fill-opacity:1;fill-rule:nonzero;stroke:none"
             d="M 0,0 H -21.603 L -26.13,-44.818 H -2.343 C 19.752,-44.818 23.583,0 0,0 M 4.727,-21.394 C 3.954,-29.629 0.942,-33.457 -2.588,-33.457 h -10.977 l 2.233,22.103 h 10.881 c 3.328,0 5.752,-4.059 5.178,-10.04 M -25.365,-11.311 -24.242,0 -46.843,0.007 c -10.356,0 -16.427,-6.286 -17.983,-21.455 -1.466,-14.364 4.92,-23.37 16.47,-23.37 h 19.597 l 1.175,11.406 c -6.517,0.034 -17.137,0.191 -20.414,0.208 -3.906,0.012 -5.435,1.539 -5.604,6.203 h 22.803 l 1.013,10.078 h -22.737 c 0.959,4.048 2.917,5.62 5.682,5.62 z m -40.916,-4.273 c 0.641,7.369 -5.618,15.593 -16.223,15.593 L -106.1,0 l -4.504,-44.818 h 11.418 l 1.372,13.559 h 11.002 l 6.012,-13.559 h 12.428 l -6.765,15.267 c 6.214,3.393 8.342,8.164 8.856,13.967 m -11.404,0.117 c 0,-2.76 -2.334,-4.431 -5.687,-4.431 h -13.299 l 0.871,8.587 c 4.958,-0.023 11.314,-0.054 13.579,-0.054 2.921,0 4.536,-2.003 4.536,-4.102" /></g><g
           transform="matrix(1.1147649,0,0,1.1147649,291.4164,95.647476)"
           id="g3740"><path
             id="path3742"
             style="fill:#262f42;fill-opacity:1;fill-rule:nonzero;stroke:none;stroke-width:1.06580436"
             d="m -2.6900429,5.6756388 -10.9863111,-0.00746 c -10.331907,0 -17.210608,-9.094508 -18.591891,-23.0139118 -1.485731,-14.689981 4.092689,-25.273418 17.679563,-25.317116 l 9.6284759,0.03091 c 11.5991482,-0.02345 17.4482821,8.193903 19.0405931,24.08398 C 15.689751,-2.5534363 8.2110034,5.6756388 -2.6900429,5.6756388 M 1.869468,-18.815478 c -0.95069753,-9.171247 -3.1665047,-11.571438 -7.5863952,-11.571438 -1.034896,0 -8.5562778,-0.03837 -8.5562778,-0.03837 -4.096952,-0.08633 -6.852056,2.163582 -5.867252,11.64711 0.871828,8.518973 3.261361,12.2119856 7.338062,12.2119856 0,0 9.246919,0.00426 9.8288481,0.00426 4.4486673,0 5.7702645,-2.6986164 4.8430149,-12.2535516 m -44.996127,-1.726599 17.171174,25.8883862 h -15.160001 l -9.369486,-14.618572 -8.865359,14.618572 h -13.560228 l 15.50532,-24.8407012 -15.534097,-22.774106 h 15.692902 l 7.549092,11.33163 7.195245,-11.33163 h 14.264725 z M -88.646094,5.4560831 h -9.385476 c -10.55571,0 -16.86634,-6.9746234 -18.10374,-17.9364211 l -3.00983,-29.874495 h 12.16296 l 1.52836,15.122697 h 20.282248 l -1.561403,-15.122697 h 12.168287 l 2.96187,28.641359 c 1.161727,11.5490563 -6.2616,19.1333197 -17.043276,19.1695571 m 4.994358,-17.9460131 -0.408203,-3.993569 h -20.316351 l 0.2835,2.790275 c 0.54357,5.3343514 2.30853,6.9927431 6.09107,7.1163764 h 9.342836 c 4.025543,-0.013855 5.464379,-2.1102922 5.007148,-5.9130824" /></g><g
           transform="matrix(1.2870273,0,0,1.2870273,286.3692,143.38041)"
           id="g3744"><path
             id="path3746"
             style="fill:#262f42;fill-opacity:1;fill-rule:nonzero;stroke:none"
             d="m 0,0 h -19.843 l -2.089,-19.843 H -2.09 Z M -2.192,-1.984 -2.61,-5.953 h -11.907 l -0.209,-1.984 h 11.907 l -0.418,-3.969 h -11.907 l -0.627,-5.952 h -3.967 l 1.672,15.874 z M -23.917,-19.843 -21.826,0 h -19.843 l -2.09,-19.843 z m -0.103,17.859 -1.671,-15.874 h -15.874 l 1.671,15.874 z m -5.221,-11.906 0.836,7.937 h -7.938 L -37.18,-13.89 Z M -53.705,-19.843 -51.614,0 h -19.844 l -2.088,-19.843 z m -0.103,17.859 -0.418,-3.969 h -11.905 l -0.209,-1.984 h 11.905 l -1.044,-9.921 h -15.875 l 0.418,3.968 h 11.905 l 0.209,1.984 h -11.905 l 1.045,9.922 z M -75.532,-19.843 -73.441,0 h -19.843 l -2.09,-19.843 z m -0.103,17.859 -1.672,-15.874 h -15.874 l 1.254,11.905 h 3.969 l 0.417,3.969 z m -4.386,-3.969 h -7.937 l -0.836,-7.937 h 7.937 z M -97.357,-19.843 -95.269,0 h -19.841 l -2.091,-19.843 z m -0.104,17.859 -1.673,-15.874 h -3.968 l 1.254,11.905 h -7.937 l -1.254,-11.905 h -3.968 l 1.672,15.874 z m -21.724,-17.859 2.09,19.843 h -19.842 l -2.09,-19.843 z m -0.104,17.859 -0.418,-3.969 h -11.904 l -0.209,-1.984 h 11.905 l -0.418,-3.969 h -11.906 l -0.209,-1.984 h 11.906 l -0.418,-3.968 h -15.874 l 1.671,15.874 z M -141.012,-19.843 -138.921,0 h -19.844 l -2.089,-19.843 z m -2.088,17.859 -0.418,-3.969 h -3.967 l -0.837,-7.937 h 3.968 l -0.417,-3.968 h -11.906 l 0.418,3.968 h 3.968 l 0.836,7.937 h -3.967 l 0.418,3.969 z M -162.838,-19.843 -160.749,0 h -19.841 l -2.091,-19.843 z m -0.103,17.859 -1.045,-9.922 h -3.97 l -0.209,-1.984 h 3.97 l -0.419,-3.968 h -7.937 l 0.628,5.952 h -3.97 l -0.627,-5.952 h -3.968 l 1.673,15.874 z m -4.597,-5.953 0.209,1.984 h -7.937 l -0.209,-1.984 z m -17.128,-11.906 2.09,19.843 h -19.841 l -2.09,-19.843 z m -0.103,17.859 -0.418,-3.969 h -11.905 l -0.209,-1.984 h 11.905 l -0.417,-3.969 h -11.906 l -0.627,-5.952 h -3.968 l 1.671,15.874 z" /></g><g
           transform="matrix(0.90651116,0,0,0.90651116,333.49335,153.14094)"
           id="g3748"><path
             id="path3750"
             style="fill:#3998d4;fill-opacity:1;fill-rule:nonzero;stroke:none"
             d="m 0,0 -10.998,-5.897 -3.194,-1.092 -6.331,0.525 -17.745,-5.442 0.546,-4.029 -0.546,-3.171 -1.36,-5.783 2.102,-3.977 1.583,-5.774 -1.815,-13.776 18.996,-3.298 10.259,-16.601 -5.388,-7.881 26.307,-42.973 32.448,20.82 7.221,19.856 16.172,30.927 -6.496,28.202 1.225,12.617 L 44.106,7.88 18.312,4.025 -2.607,8.081 Z" /></g><g
           transform="matrix(0.90651116,0,0,0.90651116,331.13234,160.46656)"
           id="g3752"><path
             id="path3754"
             style="fill:#9ccaed;fill-opacity:1;fill-rule:nonzero;stroke:none"
             d="m 0,0 13.829,-9.584 -1.076,-11.532 0.009,-0.002 13.185,4.726 7.785,6.858 -12.745,5.487 z m -9.607,-24.808 -10.064,-6.59 1.339,7.205 -13.76,-2.371 -4.931,-6.435 27.975,-0.048 21.799,11.931 -22.945,4.95 z m 37.127,5.304 13.701,-8.371 -28.459,6.757 -0.009,-0.003 v 0.005 h -0.002 l -4.063,-16.904 22.811,0.886 5.652,2.332 16.801,0.181 10.419,7.174 -22.27,8.019 z m 26.7,-27.489 16.64,-8.662 -6.489,28.208 z m -87.985,12.011 0.427,-7.734 0.85,-2.329 2.497,-7.005 8.011,-1.665 6.054,12.345 -10.837,7.38 z m 17.839,-6.388 25.56,0.899 -20.993,5.571 z m 38.852,-29.729 23.853,9.18 -5.286,14.707 z m 10.871,-13.45 13.674,-21.878 7.212,19.837 -5.503,21.46 z m -27.764,-27.905 -0.011,-0.02 0.022,0.004 0.002,-0.003 10e-4,0.003 41.424,6.043 -26.612,19.014 -32.119,3.106 z" /></g><g
           transform="matrix(0.90651116,0,0,0.90651116,361.71167,151.81935)"
           id="g3756"><path
             id="path3758"
             style="fill:#262f42;fill-opacity:1;fill-rule:nonzero;stroke:none"
             d="m 0,0 -11.182,1.066 3.397,-7.924 -13.195,-4.724 -21.105,7.151 -9.552,-0.571 7.729,-1.659 -8.158,-7.998 8.726,-0.58 -0.553,8.575 22.913,-4.918 h -0.002 0.002 l 14.767,1.612 14.581,0.075 16.943,-0.68 -13.297,12.057 0.96,7.856 z m -69.385,-17.649 3.56,0.616 -3.56,6.56 z m 67.151,-9.951 -11.711,1.094 -11.098,-1.98 -16.257,5.624 -12.165,0.956 -17.291,-1.559 3.686,-9.712 -0.384,7.734 7.979,0.306 9.817,-6.7 -3.124,6.846 7.811,-0.408 20.901,-5.538 19.93,1.186 9.915,1.858 6.82,-0.903 -4.834,-8.882 12.529,12.65 -16.871,-0.241 -8.282,9.78 z m 15.281,-24.786 -23.853,-9.179 -37.153,15.769 -15.765,3.295 -5.162,-4.465 17.07,-5.686 12.197,-14.215 5.693,8.2 21.081,-19.213 12.909,2.864 15.383,19.419 5.041,18.137 z" /></g><g
           transform="matrix(0.90651116,0,0,0.90651116,374.60244,142.64173)"
           id="g3760"><path
             id="path3762"
             style="fill:#ffffff;fill-opacity:1;fill-rule:nonzero;stroke:none"
             d="M 0,0 -3.444,7.569 -5.853,0.235 Z M -12.676,0.199 -5.853,0.235 -10,5.096 Z m -5.686,-19.817 -19.944,-1.189 4.033,-9.616 6.501,10.229 4.464,-9.109 4.948,9.681 4.477,-9.123 5.44,10.973 z m -45.525,-2.097 4.592,6.463 -7.738,0.453 z" /></g></g></g></g></svg>